<mxfile host="app.diagrams.net" modified="2020-07-30T18:02:58.904Z" agent="5.0 (X11)" etag="0cm_BTAweazbQbQZoI_B" compressed="false" version="13.5.7" type="device">
  <diagram id="Gu6gNUOCYjKbNEcBaLfg" name="Page-1">
    <mxGraphModel dx="1044" dy="636" grid="1" gridSize="10" guides="1" tooltips="1" connect="1" arrows="1" fold="1" page="1" pageScale="1" pageWidth="1100" pageHeight="850" math="0" shadow="0">
      <root>
        <mxCell id="0" />
        <mxCell id="1" parent="0" />
        <mxCell id="Xajv_sqJMKaOzMGh_vDR-34" style="edgeStyle=orthogonalEdgeStyle;rounded=0;orthogonalLoop=1;jettySize=auto;html=1;startArrow=none;startFill=0;jumpSize=12;jumpStyle=gap;" parent="1" source="Xajv_sqJMKaOzMGh_vDR-4" target="Xajv_sqJMKaOzMGh_vDR-10" edge="1">
          <mxGeometry relative="1" as="geometry">
            <Array as="points">
              <mxPoint x="400" y="300" />
            </Array>
          </mxGeometry>
        </mxCell>
        <mxCell id="Xajv_sqJMKaOzMGh_vDR-41" value="ExtE" style="edgeStyle=orthogonalEdgeStyle;rounded=0;comic=0;jumpStyle=gap;jumpSize=12;orthogonalLoop=1;jettySize=auto;html=1;startArrow=none;startFill=0;" parent="1" source="Xajv_sqJMKaOzMGh_vDR-4" target="Xajv_sqJMKaOzMGh_vDR-5" edge="1">
          <mxGeometry x="0.5" relative="1" as="geometry">
            <Array as="points">
              <mxPoint x="740" y="170" />
              <mxPoint x="740" y="170" />
            </Array>
            <mxPoint as="offset" />
          </mxGeometry>
        </mxCell>
        <mxCell id="Xajv_sqJMKaOzMGh_vDR-42" style="edgeStyle=orthogonalEdgeStyle;rounded=0;comic=0;jumpStyle=gap;jumpSize=12;orthogonalLoop=1;jettySize=auto;html=1;startArrow=none;startFill=0;" parent="1" source="Xajv_sqJMKaOzMGh_vDR-4" target="Xajv_sqJMKaOzMGh_vDR-8" edge="1">
          <mxGeometry relative="1" as="geometry">
            <Array as="points">
              <mxPoint x="840" y="290" />
              <mxPoint x="840" y="550" />
            </Array>
          </mxGeometry>
        </mxCell>
        <mxCell id="Xajv_sqJMKaOzMGh_vDR-68" value="DesE, POblE, COblE" style="edgeLabel;html=1;align=center;verticalAlign=middle;resizable=0;points=[];" parent="Xajv_sqJMKaOzMGh_vDR-42" vertex="1" connectable="0">
          <mxGeometry x="0.8794" relative="1" as="geometry">
            <mxPoint x="32" y="-10" as="offset" />
          </mxGeometry>
        </mxCell>
        <mxCell id="Xajv_sqJMKaOzMGh_vDR-47" value="POblE" style="edgeStyle=orthogonalEdgeStyle;rounded=0;comic=0;jumpStyle=gap;jumpSize=12;orthogonalLoop=1;jettySize=auto;html=1;startArrow=none;startFill=0;strokeColor=#000000;" parent="1" source="Xajv_sqJMKaOzMGh_vDR-4" target="Xajv_sqJMKaOzMGh_vDR-6" edge="1">
          <mxGeometry x="0.7727" relative="1" as="geometry">
            <Array as="points">
              <mxPoint x="750" y="430" />
              <mxPoint x="750" y="430" />
            </Array>
            <mxPoint as="offset" />
          </mxGeometry>
        </mxCell>
        <mxCell id="Xajv_sqJMKaOzMGh_vDR-53" value="EnvE" style="edgeStyle=orthogonalEdgeStyle;rounded=0;comic=0;jumpStyle=gap;jumpSize=12;orthogonalLoop=1;jettySize=auto;html=1;startArrow=none;startFill=0;strokeColor=#000000;" parent="1" source="Xajv_sqJMKaOzMGh_vDR-4" target="Xajv_sqJMKaOzMGh_vDR-9" edge="1">
          <mxGeometry x="0.6" y="-10" relative="1" as="geometry">
            <Array as="points">
              <mxPoint x="850" y="270" />
              <mxPoint x="850" y="270" />
            </Array>
            <mxPoint as="offset" />
          </mxGeometry>
        </mxCell>
        <mxCell id="Xajv_sqJMKaOzMGh_vDR-4" value="Event Treating Engine" style="rounded=0;whiteSpace=wrap;html=1;" parent="1" vertex="1">
          <mxGeometry x="680" y="250" width="120" height="60" as="geometry" />
        </mxCell>
        <mxCell id="Xajv_sqJMKaOzMGh_vDR-33" style="edgeStyle=orthogonalEdgeStyle;rounded=0;orthogonalLoop=1;jettySize=auto;html=1;startArrow=none;startFill=0;jumpSize=12;jumpStyle=gap;" parent="1" source="Xajv_sqJMKaOzMGh_vDR-6" target="Xajv_sqJMKaOzMGh_vDR-22" edge="1">
          <mxGeometry relative="1" as="geometry">
            <Array as="points">
              <mxPoint x="440" y="480" />
            </Array>
          </mxGeometry>
        </mxCell>
        <mxCell id="Xajv_sqJMKaOzMGh_vDR-52" value="&lt;div&gt;ExtE,&lt;/div&gt;&lt;div&gt;PRE&lt;/div&gt;" style="edgeStyle=orthogonalEdgeStyle;rounded=0;comic=0;jumpStyle=gap;jumpSize=12;orthogonalLoop=1;jettySize=auto;html=1;startArrow=none;startFill=0;strokeColor=#000000;" parent="1" source="Xajv_sqJMKaOzMGh_vDR-6" target="Xajv_sqJMKaOzMGh_vDR-4" edge="1">
          <mxGeometry x="0.6" y="-10" relative="1" as="geometry">
            <Array as="points">
              <mxPoint x="760" y="430" />
              <mxPoint x="760" y="430" />
            </Array>
            <mxPoint as="offset" />
          </mxGeometry>
        </mxCell>
        <mxCell id="Xajv_sqJMKaOzMGh_vDR-6" value="Policy Engine" style="rounded=0;whiteSpace=wrap;html=1;" parent="1" vertex="1">
          <mxGeometry x="660" y="460" width="120" height="60" as="geometry" />
        </mxCell>
        <mxCell id="Xajv_sqJMKaOzMGh_vDR-66" style="edgeStyle=orthogonalEdgeStyle;rounded=0;comic=0;jumpStyle=gap;jumpSize=12;orthogonalLoop=1;jettySize=auto;html=1;startArrow=none;startFill=0;strokeColor=#000000;" parent="1" source="Xajv_sqJMKaOzMGh_vDR-7" target="Xajv_sqJMKaOzMGh_vDR-22" edge="1">
          <mxGeometry relative="1" as="geometry" />
        </mxCell>
        <mxCell id="Xajv_sqJMKaOzMGh_vDR-67" value="ExtE" style="edgeStyle=orthogonalEdgeStyle;rounded=0;comic=0;jumpStyle=gap;jumpSize=12;orthogonalLoop=1;jettySize=auto;html=1;startArrow=none;startFill=0;strokeColor=#000000;" parent="1" source="Xajv_sqJMKaOzMGh_vDR-7" target="Xajv_sqJMKaOzMGh_vDR-4" edge="1">
          <mxGeometry x="0.7143" y="-10" relative="1" as="geometry">
            <Array as="points">
              <mxPoint x="710" y="400" />
            </Array>
            <mxPoint as="offset" />
          </mxGeometry>
        </mxCell>
        <mxCell id="Xajv_sqJMKaOzMGh_vDR-7" value="Contract Engine" style="rounded=0;whiteSpace=wrap;html=1;" parent="1" vertex="1">
          <mxGeometry x="520" y="370" width="120" height="60" as="geometry" />
        </mxCell>
        <mxCell id="Xajv_sqJMKaOzMGh_vDR-30" style="edgeStyle=orthogonalEdgeStyle;rounded=0;orthogonalLoop=1;jettySize=auto;html=1;startArrow=none;startFill=0;jumpSize=12;jumpStyle=gap;" parent="1" source="Xajv_sqJMKaOzMGh_vDR-23" target="Xajv_sqJMKaOzMGh_vDR-8" edge="1">
          <mxGeometry relative="1" as="geometry">
            <Array as="points">
              <mxPoint x="300" y="480" />
              <mxPoint x="300" y="480" />
            </Array>
          </mxGeometry>
        </mxCell>
        <mxCell id="Xajv_sqJMKaOzMGh_vDR-63" style="edgeStyle=orthogonalEdgeStyle;rounded=0;comic=0;jumpStyle=gap;jumpSize=12;orthogonalLoop=1;jettySize=auto;html=1;startArrow=none;startFill=0;strokeColor=#000000;" parent="1" source="Xajv_sqJMKaOzMGh_vDR-22" target="Xajv_sqJMKaOzMGh_vDR-8" edge="1">
          <mxGeometry relative="1" as="geometry">
            <Array as="points">
              <mxPoint x="400" y="470" />
              <mxPoint x="400" y="470" />
            </Array>
          </mxGeometry>
        </mxCell>
        <mxCell id="Xajv_sqJMKaOzMGh_vDR-8" value="Goal Maintenance" style="rounded=0;whiteSpace=wrap;html=1;" parent="1" vertex="1">
          <mxGeometry x="290" y="520" width="120" height="60" as="geometry" />
        </mxCell>
        <mxCell id="Xajv_sqJMKaOzMGh_vDR-49" value="EnvE" style="edgeStyle=orthogonalEdgeStyle;rounded=0;comic=0;jumpStyle=gap;jumpSize=12;orthogonalLoop=1;jettySize=auto;html=1;startArrow=none;startFill=0;strokeColor=#000000;" parent="1" source="Xajv_sqJMKaOzMGh_vDR-9" target="Xajv_sqJMKaOzMGh_vDR-4" edge="1">
          <mxGeometry x="0.6" y="-10" relative="1" as="geometry">
            <Array as="points">
              <mxPoint x="850" y="260" />
              <mxPoint x="850" y="260" />
            </Array>
            <mxPoint as="offset" />
          </mxGeometry>
        </mxCell>
        <mxCell id="Xajv_sqJMKaOzMGh_vDR-9" value="Communication Interface" style="rounded=0;whiteSpace=wrap;html=1;" parent="1" vertex="1">
          <mxGeometry x="920" y="240" width="120" height="60" as="geometry" />
        </mxCell>
        <mxCell id="Xajv_sqJMKaOzMGh_vDR-24" style="edgeStyle=orthogonalEdgeStyle;rounded=0;orthogonalLoop=1;jettySize=auto;html=1;startArrow=none;startFill=0;jumpStyle=gap;jumpSize=12;" parent="1" source="Xajv_sqJMKaOzMGh_vDR-21" target="Xajv_sqJMKaOzMGh_vDR-10" edge="1">
          <mxGeometry relative="1" as="geometry">
            <Array as="points">
              <mxPoint x="310" y="260" />
            </Array>
          </mxGeometry>
        </mxCell>
        <mxCell id="Xajv_sqJMKaOzMGh_vDR-27" style="edgeStyle=orthogonalEdgeStyle;rounded=0;orthogonalLoop=1;jettySize=auto;html=1;startArrow=none;startFill=0;jumpSize=12;" parent="1" source="Xajv_sqJMKaOzMGh_vDR-10" target="Xajv_sqJMKaOzMGh_vDR-12" edge="1">
          <mxGeometry relative="1" as="geometry" />
        </mxCell>
        <mxCell id="Xajv_sqJMKaOzMGh_vDR-28" style="edgeStyle=orthogonalEdgeStyle;rounded=0;orthogonalLoop=1;jettySize=auto;html=1;startArrow=none;startFill=0;jumpStyle=gap;jumpSize=12;" parent="1" source="Xajv_sqJMKaOzMGh_vDR-22" target="Xajv_sqJMKaOzMGh_vDR-10" edge="1">
          <mxGeometry relative="1" as="geometry">
            <Array as="points">
              <mxPoint x="420" y="320" />
              <mxPoint x="370" y="320" />
            </Array>
          </mxGeometry>
        </mxCell>
        <mxCell id="Xajv_sqJMKaOzMGh_vDR-29" style="edgeStyle=orthogonalEdgeStyle;rounded=0;orthogonalLoop=1;jettySize=auto;html=1;startArrow=none;startFill=0;jumpSize=12;jumpStyle=gap;" parent="1" source="Xajv_sqJMKaOzMGh_vDR-10" target="Xajv_sqJMKaOzMGh_vDR-23" edge="1">
          <mxGeometry relative="1" as="geometry">
            <Array as="points">
              <mxPoint x="330" y="320" />
              <mxPoint x="290" y="320" />
            </Array>
          </mxGeometry>
        </mxCell>
        <mxCell id="Xajv_sqJMKaOzMGh_vDR-55" style="edgeStyle=orthogonalEdgeStyle;rounded=0;comic=0;jumpStyle=gap;jumpSize=12;orthogonalLoop=1;jettySize=auto;html=1;startArrow=none;startFill=0;strokeColor=#000000;" parent="1" source="Xajv_sqJMKaOzMGh_vDR-10" target="Xajv_sqJMKaOzMGh_vDR-25" edge="1">
          <mxGeometry relative="1" as="geometry">
            <Array as="points">
              <mxPoint x="260" y="160" />
              <mxPoint x="260" y="160" />
            </Array>
          </mxGeometry>
        </mxCell>
        <mxCell id="Xajv_sqJMKaOzMGh_vDR-10" value="&lt;div&gt;Plan Engine&lt;/div&gt;" style="rounded=0;whiteSpace=wrap;html=1;" parent="1" vertex="1">
          <mxGeometry x="290" y="140" width="120" height="60" as="geometry" />
        </mxCell>
        <mxCell id="Xajv_sqJMKaOzMGh_vDR-18" value="&lt;div&gt;AddBelief,&lt;/div&gt;&lt;div&gt;DeleteBelief&lt;/div&gt;" style="edgeStyle=orthogonalEdgeStyle;rounded=0;orthogonalLoop=1;jettySize=auto;html=1;startArrow=none;startFill=0;jumpSize=12;jumpStyle=gap;" parent="1" source="Xajv_sqJMKaOzMGh_vDR-12" target="Xajv_sqJMKaOzMGh_vDR-5" edge="1">
          <mxGeometry x="0.9" y="-40" relative="1" as="geometry">
            <mxPoint as="offset" />
          </mxGeometry>
        </mxCell>
        <mxCell id="Xajv_sqJMKaOzMGh_vDR-19" value="DesE,&lt;br&gt;CooperationInfo,&lt;br&gt;PRE" style="edgeStyle=orthogonalEdgeStyle;rounded=0;orthogonalLoop=1;jettySize=auto;html=1;startArrow=none;startFill=0;jumpSize=12;jumpStyle=gap;" parent="1" source="Xajv_sqJMKaOzMGh_vDR-12" target="Xajv_sqJMKaOzMGh_vDR-4" edge="1">
          <mxGeometry x="0.7872" y="30" relative="1" as="geometry">
            <Array as="points">
              <mxPoint x="560" y="60" />
              <mxPoint x="560" y="260" />
            </Array>
            <mxPoint as="offset" />
          </mxGeometry>
        </mxCell>
        <mxCell id="Xajv_sqJMKaOzMGh_vDR-57" style="edgeStyle=orthogonalEdgeStyle;rounded=0;comic=0;jumpStyle=gap;jumpSize=12;orthogonalLoop=1;jettySize=auto;html=1;startArrow=none;startFill=0;strokeColor=#000000;" parent="1" source="Xajv_sqJMKaOzMGh_vDR-12" target="Xajv_sqJMKaOzMGh_vDR-10" edge="1">
          <mxGeometry relative="1" as="geometry">
            <Array as="points">
              <mxPoint x="360" y="100" />
              <mxPoint x="360" y="100" />
            </Array>
          </mxGeometry>
        </mxCell>
        <mxCell id="Xajv_sqJMKaOzMGh_vDR-12" value="&lt;div&gt;Execution Engine&lt;/div&gt;" style="rounded=0;whiteSpace=wrap;html=1;" parent="1" vertex="1">
          <mxGeometry x="290" y="10" width="120" height="60" as="geometry" />
        </mxCell>
        <mxCell id="Xajv_sqJMKaOzMGh_vDR-17" value="External Actions" style="edgeStyle=orthogonalEdgeStyle;rounded=0;orthogonalLoop=1;jettySize=auto;html=1;startArrow=none;startFill=0;jumpSize=12;jumpStyle=gap;" parent="1" target="Xajv_sqJMKaOzMGh_vDR-13" edge="1">
          <mxGeometry relative="1" as="geometry">
            <mxPoint x="290" y="20" as="sourcePoint" />
            <Array as="points">
              <mxPoint x="290" y="30" />
            </Array>
          </mxGeometry>
        </mxCell>
        <mxCell id="Xajv_sqJMKaOzMGh_vDR-54" value="External Actions" style="edgeStyle=orthogonalEdgeStyle;rounded=0;comic=0;jumpStyle=gap;jumpSize=12;orthogonalLoop=1;jettySize=auto;html=1;startArrow=none;startFill=0;strokeColor=#000000;" parent="1" source="Xajv_sqJMKaOzMGh_vDR-13" target="Xajv_sqJMKaOzMGh_vDR-12" edge="1">
          <mxGeometry relative="1" as="geometry">
            <Array as="points">
              <mxPoint x="150" y="50" />
              <mxPoint x="150" y="50" />
            </Array>
          </mxGeometry>
        </mxCell>
        <mxCell id="Xajv_sqJMKaOzMGh_vDR-13" value="Domain Interface" style="rounded=0;whiteSpace=wrap;html=1;" parent="1" vertex="1">
          <mxGeometry x="10" y="10" width="120" height="60" as="geometry" />
        </mxCell>
        <mxCell id="Xajv_sqJMKaOzMGh_vDR-60" style="edgeStyle=orthogonalEdgeStyle;rounded=0;comic=0;jumpStyle=gap;jumpSize=12;orthogonalLoop=1;jettySize=auto;html=1;startArrow=none;startFill=0;strokeColor=#000000;" parent="1" source="Xajv_sqJMKaOzMGh_vDR-10" target="Xajv_sqJMKaOzMGh_vDR-21" edge="1">
          <mxGeometry relative="1" as="geometry">
            <Array as="points">
              <mxPoint x="300" y="250" />
            </Array>
          </mxGeometry>
        </mxCell>
        <mxCell id="Xajv_sqJMKaOzMGh_vDR-21" value="Intention Set" style="shape=cylinder;whiteSpace=wrap;html=1;boundedLbl=1;backgroundOutline=1;" parent="1" vertex="1">
          <mxGeometry x="170" y="230" width="60" height="80" as="geometry" />
        </mxCell>
        <mxCell id="Xajv_sqJMKaOzMGh_vDR-58" style="edgeStyle=orthogonalEdgeStyle;rounded=0;comic=0;jumpStyle=gap;jumpSize=12;orthogonalLoop=1;jettySize=auto;html=1;startArrow=none;startFill=0;strokeColor=#000000;" parent="1" source="Xajv_sqJMKaOzMGh_vDR-10" target="Xajv_sqJMKaOzMGh_vDR-22" edge="1">
          <mxGeometry relative="1" as="geometry">
            <Array as="points">
              <mxPoint x="360" y="330" />
              <mxPoint x="410" y="330" />
            </Array>
          </mxGeometry>
        </mxCell>
        <mxCell id="Xajv_sqJMKaOzMGh_vDR-62" style="edgeStyle=orthogonalEdgeStyle;rounded=0;comic=0;jumpStyle=gap;jumpSize=12;orthogonalLoop=1;jettySize=auto;html=1;startArrow=none;startFill=0;strokeColor=#000000;" parent="1" source="Xajv_sqJMKaOzMGh_vDR-8" target="Xajv_sqJMKaOzMGh_vDR-22" edge="1">
          <mxGeometry relative="1" as="geometry">
            <Array as="points">
              <mxPoint x="390" y="480" />
              <mxPoint x="390" y="480" />
            </Array>
          </mxGeometry>
        </mxCell>
        <mxCell id="Xajv_sqJMKaOzMGh_vDR-64" style="edgeStyle=orthogonalEdgeStyle;rounded=0;comic=0;jumpStyle=gap;jumpSize=12;orthogonalLoop=1;jettySize=auto;html=1;startArrow=none;startFill=0;strokeColor=#000000;" parent="1" source="Xajv_sqJMKaOzMGh_vDR-22" target="Xajv_sqJMKaOzMGh_vDR-6" edge="1">
          <mxGeometry relative="1" as="geometry">
            <Array as="points">
              <mxPoint x="430" y="490" />
            </Array>
          </mxGeometry>
        </mxCell>
        <mxCell id="Xajv_sqJMKaOzMGh_vDR-65" style="edgeStyle=orthogonalEdgeStyle;rounded=0;comic=0;jumpStyle=gap;jumpSize=12;orthogonalLoop=1;jettySize=auto;html=1;startArrow=none;startFill=0;strokeColor=#000000;" parent="1" source="Xajv_sqJMKaOzMGh_vDR-22" target="Xajv_sqJMKaOzMGh_vDR-7" edge="1">
          <mxGeometry relative="1" as="geometry">
            <Array as="points">
              <mxPoint x="500" y="410" />
              <mxPoint x="500" y="410" />
            </Array>
          </mxGeometry>
        </mxCell>
        <mxCell id="Xajv_sqJMKaOzMGh_vDR-22" value="Beliefs" style="shape=cylinder;whiteSpace=wrap;html=1;boundedLbl=1;backgroundOutline=1;" parent="1" vertex="1">
          <mxGeometry x="390" y="360" width="60" height="80" as="geometry" />
        </mxCell>
        <mxCell id="Xajv_sqJMKaOzMGh_vDR-59" style="edgeStyle=orthogonalEdgeStyle;rounded=0;comic=0;jumpStyle=gap;jumpSize=12;orthogonalLoop=1;jettySize=auto;html=1;startArrow=none;startFill=0;strokeColor=#000000;" parent="1" source="Xajv_sqJMKaOzMGh_vDR-23" target="Xajv_sqJMKaOzMGh_vDR-10" edge="1">
          <mxGeometry relative="1" as="geometry">
            <Array as="points">
              <mxPoint x="300" y="330" />
              <mxPoint x="340" y="330" />
            </Array>
          </mxGeometry>
        </mxCell>
        <mxCell id="Xajv_sqJMKaOzMGh_vDR-61" style="edgeStyle=orthogonalEdgeStyle;rounded=0;comic=0;jumpStyle=gap;jumpSize=12;orthogonalLoop=1;jettySize=auto;html=1;startArrow=none;startFill=0;strokeColor=#000000;" parent="1" source="Xajv_sqJMKaOzMGh_vDR-8" target="Xajv_sqJMKaOzMGh_vDR-23" edge="1">
          <mxGeometry relative="1" as="geometry">
            <Array as="points">
              <mxPoint x="310" y="480" />
              <mxPoint x="310" y="480" />
            </Array>
          </mxGeometry>
        </mxCell>
        <mxCell id="Xajv_sqJMKaOzMGh_vDR-23" value="Goal Set" style="shape=cylinder;whiteSpace=wrap;html=1;boundedLbl=1;backgroundOutline=1;" parent="1" vertex="1">
          <mxGeometry x="260" y="360" width="60" height="80" as="geometry" />
        </mxCell>
        <mxCell id="Xajv_sqJMKaOzMGh_vDR-56" style="edgeStyle=orthogonalEdgeStyle;rounded=0;comic=0;jumpStyle=gap;jumpSize=12;orthogonalLoop=1;jettySize=auto;html=1;startArrow=none;startFill=0;strokeColor=#000000;" parent="1" source="Xajv_sqJMKaOzMGh_vDR-25" target="Xajv_sqJMKaOzMGh_vDR-10" edge="1">
          <mxGeometry relative="1" as="geometry">
            <Array as="points">
              <mxPoint x="260" y="170" />
              <mxPoint x="260" y="170" />
            </Array>
          </mxGeometry>
        </mxCell>
        <mxCell id="Xajv_sqJMKaOzMGh_vDR-25" value="Plan Library" style="shape=cylinder;whiteSpace=wrap;html=1;boundedLbl=1;backgroundOutline=1;" parent="1" vertex="1">
          <mxGeometry x="170" y="130" width="60" height="80" as="geometry" />
        </mxCell>
        <mxCell id="Xajv_sqJMKaOzMGh_vDR-46" value="&lt;div&gt;COblE,&lt;/div&gt;&lt;div&gt;DesE&lt;/div&gt;" style="endArrow=classic;html=1;jumpStyle=gap;jumpSize=12;edgeStyle=orthogonalEdgeStyle;strokeColor=#000000;rounded=0;" parent="1" source="Xajv_sqJMKaOzMGh_vDR-4" target="Xajv_sqJMKaOzMGh_vDR-7" edge="1">
          <mxGeometry x="0.6" y="-20" width="50" height="50" relative="1" as="geometry">
            <mxPoint x="610" y="360" as="sourcePoint" />
            <mxPoint x="810" y="300" as="targetPoint" />
            <Array as="points">
              <mxPoint x="700" y="390" />
            </Array>
            <mxPoint as="offset" />
          </mxGeometry>
        </mxCell>
        <mxCell id="Xajv_sqJMKaOzMGh_vDR-5" value="Belief Update" style="rounded=0;whiteSpace=wrap;html=1;" parent="1" vertex="1">
          <mxGeometry x="680" y="110" width="120" height="60" as="geometry" />
        </mxCell>
      </root>
    </mxGraphModel>
  </diagram>
</mxfile>
